[Header]
FileType HTR
DataType HTRS
FileVersion 1
NumSegments 64
NumFrames 4
DataFrameRate 30
EulerRotationOrder ZYX
CalibrationUnits mm
RotationUnits Degrees
GlobalAxisofGravity Y
BoneLengthAxis Y
ScaleFactor 1.0
[SegmentNames&Hierarchy]
Hips	GLOBAL
Spine	Hips
Spine1	Spine
Spine2	Spine1
Neck	Spine2
Head	Neck
LeftEye	Head
RightEye	Head
LeftShoulder	Spine2
LeftArm	LeftShoulder
LeftForeArm	LeftArm
LeftHand	LeftForeArm
LeftHandThumb1	LeftHand
LeftHandThumb2	LeftHandThumb1
LeftHandThumb3	LeftHandThumb2
LeftHandThumb4	LeftHandThumb3
LeftHandIndex1	LeftHand
LeftHandIndex2	LeftHandIndex1
LeftHandIndex3	LeftHandIndex2
LeftHandIndex4	LeftHandIndex3
LeftHandMiddle1	LeftHand
LeftHandMiddle2	LeftHandMiddle1
LeftHandMiddle3	LeftHandMiddle2
LeftHandMiddle4	LeftHandMiddle3
LeftHandRing1	LeftHand
LeftHandRing2	LeftHandRing1
LeftHandRing3	LeftHandRing2
LeftHandRing4	LeftHandRing3
LeftHandPinky1	LeftHand
LeftHandPinky2	LeftHandPinky1
LeftHandPinky3	LeftHandPinky2
LeftHandPinky4	LeftHandPinky3
RightShoulder	Spine2
RightArm	RightShoulder
RightForeArm	RightArm
RightHand	RightForeArm
RightHandPinky1	RightHand
RightHandPinky2	RightHandPinky1
RightHandPinky3	RightHandPinky2
RightHandPinky4	RightHandPinky3
RightHandRing1	RightHand
RightHandRing2	RightHandRing1
RightHandRing3	RightHandRing2
RightHandRing4	RightHandRing3
RightHandMiddle1	RightHand
RightHandMiddle2	RightHandMiddle1
RightHandMiddle3	RightHandMiddle2
RightHandMiddle4	RightHandMiddle3
RightHandIndex1	RightHand
RightHandIndex2	RightHandIndex1
RightHandIndex3	RightHandIndex2
RightHandIndex4	RightHandIndex3
RightHandThumb1	RightHand
RightHandThumb2	RightHandThumb1
RightHandThumb3	RightHandThumb2
RightHandThumb4	RightHandThumb3
LeftUpLeg	Hips
LeftLeg	LeftUpLeg
LeftFoot	LeftLeg
LeftToeBase	LeftFoot
RightUpLeg	Hips
RightLeg	RightUpLeg
RightFoot	RightLeg
RightToeBase	RightFoot
[BasePosition]
Hips	0	0	0	0	0	0	1
Spine	0	0	0	0	0	0	1
Spine1	0	0	0	0	0	0	1
Spine2	0	0	0	0	0	0	1
Neck	0	0	0	0	0	0	1
Head	0	0	0	0	0	0	1
LeftEye	0	0	0	0	0	0	1
RightEye	0	0	0	0	0	0	1
LeftShoulder	0	0	0	0	0	0	1
LeftArm	0	0	0	0	0	0	1
LeftForeArm	0	0	0	0	0	0	1
LeftHand	0	0	0	0	0	0	1
LeftHandThumb1	0	0	0	0	0	0	1
LeftHandThumb2	0	0	0	0	0	0	1
LeftHandThumb3	0	0	0	0	0	0	1
LeftHandThumb4	0	0	0	0	0	0	1
LeftHandIndex1	0	0	0	0	0	0	1
LeftHandIndex2	0	0	0	0	0	0	1
LeftHandIndex3	0	0	0	0	0	0	1
LeftHandIndex4	0	0	0	0	0	0	1
LeftHandMiddle1	0	0	0	0	0	0	1
LeftHandMiddle2	0	0	0	0	0	0	1
LeftHandMiddle3	0	0	0	0	0	0	1
LeftHandMiddle4	0	0	0	0	0	0	1
LeftHandRing1	0	0	0	0	0	0	1
LeftHandRing2	0	0	0	0	0	0	1
LeftHandRing3	0	0	0	0	0	0	1
LeftHandRing4	0	0	0	0	0	0	1
LeftHandPinky1	0	0	0	0	0	0	1
LeftHandPinky2	0	0	0	0	0	0	1
LeftHandPinky3	0	0	0	0	0	0	1
LeftHandPinky4	0	0	0	0	0	0	1
RightShoulder	0	0	0	0	0	0	1
RightArm	0	0	0	0	0	0	1
RightForeArm	0	0	0	0	0	0	1
RightHand	0	0	0	0	0	0	1
RightHandPinky1	0	0	0	0	0	0	1
RightHandPinky2	0	0	0	0	0	0	1
RightHandPinky3	0	0	0	0	0	0	1
RightHandPinky4	0	0	0	0	0	0	1
RightHandRing1	0	0	0	0	0	0	1
RightHandRing2	0	0	0	0	0	0	1
RightHandRing3	0	0	0	0	0	0	1
RightHandRing4	0	0	0	0	0	0	1
RightHandMiddle1	0	0	0	0	0	0	1
RightHandMiddle2	0	0	0	0	0	0	1
RightHandMiddle3	0	0	0	0	0	0	1
RightHandMiddle4	0	0	0	0	0	0	1
RightHandIndex1	0	0	0	0	0	0	1
RightHandIndex2	0	0	0	0	0	0	1
RightHandIndex3	0	0	0	0	0	0	1
RightHandIndex4	0	0	0	0	0	0	1
RightHandThumb1	0	0	0	0	0	0	1
RightHandThumb2	0	0	0	0	0	0	1
RightHandThumb3	0	0	0	0	0	0	1
RightHandThumb4	0	0	0	0	0	0	1
LeftUpLeg	0	0	0	0	0	0	1
LeftLeg	0	0	0	0	0	0	1
LeftFoot	0	0	0	0	0	0	1
LeftToeBase	0	0	0	0	0	0	1
RightUpLeg	0	0	0	0	0	0	1
RightLeg	0	0	0	0	0	0	1
RightFoot	0	0	0	0	0	0	1
RightToeBase	0	0	0	0	0	0	1
[Hips]
403	391.7313232	1046.086426	-8.340175629	-9.27606678	-11.03962708	-358.4748535	1.0
404	399.8337097	1061.3125	-7.054763317	-9.232544899	-8.836462021	-356.8170776	1.0
405	406.7254333	1065.430176	-3.848170042	-8.425430298	-8.341881752	-357.2868652	1.0
406	412.4554138	1059.782471	2.798348665	-6.542426109	-9.002821922	-359.4007263	1.0
[Spine]
403	0	101.8159943	1.315000057	20.62789536	-10.61465549	-8.206935883	1.0
404	0	101.8159943	1.315000057	21.14557266	-16.62817955	-14.55488014	1.0
405	0	101.8159943	1.315000057	21.11846924	-22.55330467	-17.58499527	1.0
406	0	101.8159943	1.315000057	19.8536377	-28.27062225	-16.18445015	1.0
[Spine1]
403	0	100.8349991	-10.00800037	1.691380858	-1.972406983	3.504569054	1.0
404	0	100.8349991	-10.00800037	2.299012184	-2.938415766	2.890096664	1.0
405	0	100.8349991	-10.00800037	2.977348566	-3.774233341	2.065442562	1.0
406	0	100.8349991	-10.00800037	2.800509691	-4.326063633	0.5344882011	1.0
[Spine2]
403	0	91	-13.73399925	1.807080746	-1.832064748	3.522594452	1.0
404	0	91	-13.73399925	2.475977898	-2.796762228	2.87911725	1.0
405	0	91	-13.73399925	3.17327261	-3.640950203	2.011367321	1.0
406	0	91	-13.73399925	2.921528578	-4.252227783	0.4762821496	1.0
[Neck]
403	0	166.7169952	-25.16200066	4.772383213	-5.039983273	-2.340062618	1.0
404	0	166.7169952	-25.16200066	6.763867378	-4.722540379	-2.261430264	1.0
405	0	166.7169952	-25.16200066	7.337018013	-4.386701107	-2.422734261	1.0
406	0	166.7169952	-25.16200066	7.120558262	-4.441979408	-2.108760834	1.0
[Head]
403	0	96.17900085	16.84999847	2.610969305	-32.33419037	10.26814938	1.0
404	0	96.17900085	16.84999847	2.63824296	-31.90711212	11.560462	1.0
405	0	96.17900085	16.84999847	3.637257099	-30.94488335	11.46752739	1.0
406	0	96.17900085	16.84999847	6.327273846	-30.18422127	9.003947258	1.0
[LeftEye]
403	30.6760006	64.09500122	92.83599854	0	0	0	1.0
404	30.6760006	64.09500122	92.83599854	0	0	0	1.0
405	30.6760006	64.09500122	92.83599854	0	0	0	1.0
406	30.6760006	64.09500122	92.83599854	0	0	0	1.0
[RightEye]
403	-30.6760006	64.09500122	92.83499908	0	0	0	1.0
404	-30.6760006	64.09500122	92.83499908	0	0	0	1.0
405	-30.6760006	64.09500122	92.83499908	0	0	0	1.0
406	-30.6760006	64.09500122	92.83499908	0	0	0	1.0
[LeftShoulder]
403	45.70400238	109.4599991	-26.28000069	0.7870949507	-8.471020699	2.332333326	1.0
404	45.70400238	109.4599991	-26.28000069	1.184852123	-10.17580318	-0.3691899478	1.0
405	45.70400238	109.4599991	-26.28000069	1.443734765	-9.4760952	-3.047253847	1.0
406	45.70400238	109.4599991	-26.28000069	1.588538647	-9.401285172	-4.388911724	1.0
[LeftArm]
403	105.923996	-5.24600029	-22.32099915	-56.19486618	-14.53332138	3.757323503	1.0
404	105.923996	-5.24600029	-22.32099915	-49.68563843	-17.52352715	9.261698723	1.0
405	105.923996	-5.24600029	-22.32099915	-43.00532532	-22.85951233	12.54584026	1.0
406	105.923996	-5.24600029	-22.32099915	-34.6620369	-27.47953415	11.80799389	1.0
[LeftForeArm]
403	278.414978	-0.0009999999311	0	-0.0001017789837	-101.2378082	-0.0001720817672	1.0
404	278.414978	-0.0009999999311	0	-1.977557986e-05	-105.5192719	-0.0002149656939	1.0
405	278.414978	-0.0009999999311	0	2.685612117e-06	-106.9492264	-0.0002285155788	1.0
406	278.414978	-0.0009999999311	0	0	-105.9265976	-0.0002136230469	1.0
[LeftHand]
403	283.2879944	0	0	28.32061195	-15.70373535	15.75069714	1.0
404	283.2879944	0	0	29.80380058	-16.66289711	12.12185097	1.0
405	283.2879944	0	0	30.23612022	-16.39994621	9.55753231	1.0
406	283.2879944	0	0	30.19623566	-15.24272919	8.495563507	1.0
[LeftHandThumb1]
403	24.6609993	-15.75	26.8239994	-3.21440506	6.566051483	13.80898952	1.0
404	24.6609993	-15.75	26.8239994	-2.642538548	4.891936779	11.34057903	1.0
405	24.6609993	-15.75	26.8239994	-2.557889223	2.967522621	9.468395233	1.0
406	24.6609993	-15.75	26.8239994	-2.844455481	1.761141777	8.508050919	1.0
[LeftHandThumb2]
403	32.29800034	-18.64699936	18.64699936	1.474413514	-0.03206830472	-0.8584233522	1.0
404	32.29800034	-18.64699936	18.64699936	2.257889271	2.023035288	-0.3870217204	1.0
405	32.29800034	-18.64699936	18.64699936	3.697781801	5.922412395	0.6307060122	1.0
406	32.29800034	-18.64699936	18.64699936	5.314520359	10.51428604	1.9443959	1.0
[LeftHandThumb3]
403	26.52600098	-15.31499958	15.31499958	-3.251621962	-2.863224268	3.356441498	1.0
404	26.52600098	-15.31499958	15.31499958	-2.738745213	-2.23143816	3.242966175	1.0
405	26.52600098	-15.31499958	15.31499958	-1.974190474	-1.192510009	3.085904598	1.0
406	26.52600098	-15.31499958	15.31499958	-1.134766579	0.045912534	2.93977046	1.0
[LeftHandThumb4]
403	19.54599953	-11.28499985	11.28499985	0	0	0	1.0
404	19.54599953	-11.28499985	11.28499985	0	0	0	1.0
405	19.54599953	-11.28499985	11.28499985	0	0	0	1.0
406	19.54599953	-11.28499985	11.28499985	0	0	0	1.0
[LeftHandIndex1]
403	91.09299469	-5.170999527	22.60099792	0.02248628624	-6.235934258	2.733608723	1.0
404	91.09299469	-5.170999527	22.60099792	0.0483305119	-6.844684124	-2.428890944	1.0
405	91.09299469	-5.170999527	22.60099792	0.05141573027	-7.721143723	-4.503568649	1.0
406	91.09299469	-5.170999527	22.60099792	0.07589940727	-8.732392311	-3.463020086	1.0
[LeftHandIndex2]
403	36.76399994	0	0	2.304968575e-06	0.003600816475	-0.03000304103	1.0
404	36.76399994	0	0	4.853655355e-06	0.004714849871	-0.03927272186	1.0
405	36.76399994	0	0	5.908768799e-06	0.004174157977	-0.03474820778	1.0
406	36.76399994	0	0	-1.084864266e-06	0.00104630203	-0.008743483573	1.0
[LeftHandIndex3]
403	28.83100128	0	0	-0.06799562275	0.9653219581	-8.056714058	1.0
404	28.83100128	0	0	-0.07440218329	1.009755969	-8.430282593	1.0
405	28.83100128	0	0	-0.07791280746	1.03317225	-8.627304077	1.0
406	28.83100128	0	0	-0.07832731307	1.035801172	-8.649487495	1.0
[LeftHandIndex4]
403	23.92700005	0	0	0	0	0	1.0
404	23.92700005	0	0	0	0	0	1.0
405	23.92700005	0	0	0	0	0	1.0
406	23.92700005	0	0	0	0	0	1.0
[LeftHandMiddle1]
403	95.33399963	0	0	-0.0002698344178	2.193958759	-1.623845696	1.0
404	95.33399963	0	0	-0.02550139464	2.253465176	-5.380970955	1.0
405	95.33399963	0	0	-0.04663502052	2.003371716	-6.849467278	1.0
406	95.33399963	0	0	-0.03980142996	1.559653282	-6.256321907	1.0
[LeftHandMiddle2]
403	36.98199844	0	0	-4.756795533e-06	-6.970683171e-05	-4.291319442e-07	1.0
404	36.98199844	0	0	-1.08068275e-06	-7.038847252e-05	4.510407962e-05	1.0
405	36.98199844	0	0	-2.99774058e-07	-6.304344424e-05	0.0001131899044	1.0
406	36.98199844	0	0	-4.699018518e-06	-6.846876204e-05	6.621167995e-05	1.0
[LeftHandMiddle3]
403	29.50900078	0	0	-0.04602543637	0.7949948907	-6.627965927	1.0
404	29.50900078	0	0	-0.04877585545	0.8183893561	-6.823939323	1.0
405	29.50900078	0	0	-0.04978482053	0.8266368508	-6.892977715	1.0
406	29.50900078	0	0	-0.0493013002	0.8227056861	-6.860063553	1.0
[LeftHandMiddle4]
403	28.3390007	0	0	0	0	0	1.0
404	28.3390007	0	0	0	0	0	1.0
405	28.3390007	0	0	0	0	0	1.0
406	28.3390007	0	0	0	0	0	1.0
[LeftHandRing1]
403	91.04499817	-0.4390000105	-18.65100098	0.09547254443	10.12631989	-2.238051891	1.0
404	91.04499817	-0.4390000105	-18.65100098	0.0732793659	10.58879471	-5.488152504	1.0
405	91.04499817	-0.4390000105	-18.65100098	0.05280669034	10.60166645	-6.725684643	1.0
406	91.04499817	-0.4390000105	-18.65100098	0.05139130354	10.35383606	-6.486136913	1.0
[LeftHandRing2]
403	31.54000092	0	0	8.3439744e-07	-2.216379926e-06	2.510119157e-05	1.0
404	31.54000092	0	0	1.086547172e-06	-5.118634363e-06	1.535558295e-05	1.0
405	31.54000092	0	0	2.98401801e-06	-1.418012471e-05	-0.0001023647128	1.0
406	31.54000092	0	0	-7.66021094e-06	-5.8173855e-06	-8.188930951e-05	1.0
[LeftHandRing3]
403	29.37700081	0	0	-0.0453447625	0.7890227437	-6.577856064	1.0
404	29.37700081	0	0	-0.04735061526	0.8062214255	-6.721895695	1.0
405	29.37700081	0	0	-0.04764641076	0.8087447882	-6.74303627	1.0
406	29.37700081	0	0	-0.04682969302	0.8018792868	-6.685574055	1.0
[LeftHandRing4]
403	26.47500038	0	0	0	0	0	1.0
404	26.47500038	0	0	0	0	0	1.0
405	26.47500038	0	0	0	0	0	1.0
406	26.47500038	0	0	0	0	0	1.0
[LeftHandPinky1]
403	80.77799988	-4.887000084	-38.06099701	0.6633783579	24.08432579	1.587299109	1.0
404	80.77799988	-4.887000084	-38.06099701	0.7063851357	25.17741394	-1.872538686	1.0
405	80.77799988	-4.887000084	-38.06099701	0.7118342519	25.59046364	-3.141386509	1.0
406	80.77799988	-4.887000084	-38.06099701	0.7114921808	25.59960938	-3.18013072	1.0
[LeftHandPinky2]
403	36	0	0	0.01803672686	-4.054461956	-0.5093700886	1.0
404	36	0	0	0.02058589086	-4.050131798	-0.5454214215	1.0
405	36	0	0	0.02269427665	-4.04655695	-0.5751652718	1.0
406	36	0	0	0.02267626673	-4.046582222	-0.5749743581	1.0
[LeftHandPinky3]
403	21.14200211	0	0	-0.02955752425	0.6374514103	-5.30997467	1.0
404	21.14200211	0	0	-0.03080114163	0.6507630348	-5.421241283	1.0
405	21.14200211	0	0	-0.03059347719	0.6484630108	-5.402112484	1.0
406	21.14200211	0	0	-0.02957843803	0.6377077103	-5.31224966	1.0
[LeftHandPinky4]
403	19.75699997	0	0	0	0	0	1.0
404	19.75699997	0	0	0	0	0	1.0
405	19.75699997	0	0	0	0	0	1.0
406	19.75699997	0	0	0	0	0	1.0
[RightShoulder]
403	-45.70000076	109.4620056	-26.28000069	-0.3437742889	-5.233353138	12.48749256	1.0
404	-45.70000076	109.4620056	-26.28000069	-0.2567441761	-5.128946781	8.142498016	1.0
405	-45.70000076	109.4620056	-26.28000069	-0.1977538317	-5.374723434	2.559555054	1.0
406	-45.70000076	109.4620056	-26.28000069	-0.1801729649	-5.998216629	-1.424107432	1.0
[RightArm]
403	-105.9280014	-5.248000145	-22.32099915	15.31655598	-32.31062698	30.22206306	1.0
404	-105.9280014	-5.248000145	-22.32099915	18.56310081	-35.89359665	25.55669022	1.0
405	-105.9280014	-5.248000145	-22.32099915	19.04270935	-34.10522842	20.04756546	1.0
406	-105.9280014	-5.248000145	-22.32099915	13.78912926	-28.69531631	12.4948864	1.0
[RightForeArm]
403	-278.414978	0	0	3.344759307e-06	31.57361794	5.661554951e-06	1.0
404	-278.414978	0	0	1.026079644e-05	27.71549606	1.011623044e-05	1.0
405	-278.414978	0	0	5.189561762e-06	22.43083572	3.254612466e-06	1.0
406	-278.414978	0	0	-5.123356459e-06	16.96101761	-3.686657237e-06	1.0
[RightHand]
403	-283.2879944	0	0.0009999999311	-0.8048481941	-0.8097733855	-5.724141121	1.0
404	-283.2879944	0	0.0009999999311	-3.140016079	0.01926396228	-6.016918659	1.0
405	-283.2879944	0	0.0009999999311	-5.97343874	1.93689549	-7.476687431	1.0
406	-283.2879944	0	0.0009999999311	-7.555066109	4.487978935	-9.702012062	1.0
[RightHandPinky1]
403	-80.76699829	-4.885000229	-38.06000137	-3.59960413	-14.01837444	61.54167175	1.0
404	-80.76699829	-4.885000229	-38.06000137	-3.190945148	-16.01810837	57.8620224	1.0
405	-80.76699829	-4.885000229	-38.06000137	-2.648597479	-18.06495667	52.84732056	1.0
406	-80.76699829	-4.885000229	-38.06000137	-2.121454954	-19.8281765	47.72979736	1.0
[RightHandPinky2]
403	-36	0	0.0009999999311	-3.726364851	-6.147159576	62.48197174	1.0
404	-36	0	0.0009999999311	-3.243132353	-5.862141609	57.82843018	1.0
405	-36	0	0.0009999999311	-2.573142052	-5.38805294	51.01012802	1.0
406	-36	0	0.0009999999311	-1.927021027	-4.797999859	43.75720978	1.0
[RightHandPinky3]
403	-21.14200211	0	0	-0.02117099985	-0.5436547399	4.483019829	1.0
404	-21.14200211	0	0	-0.01456604432	-0.4472846389	3.687183142	1.0
405	-21.14200211	0	0	-0.007061717566	-0.3127950728	2.57742548	1.0
406	-21.14200211	0	0	-0.002470317762	-0.1857260615	1.530011415	1.0
[RightHandPinky4]
403	-19.75699997	0	0	0	0	0	1.0
404	-19.75699997	0	0	0	0	0	1.0
405	-19.75699997	0	0	0	0	0	1.0
406	-19.75699997	0	0	0	0	0	1.0
[RightHandRing1]
403	-91.03599548	-0.4390000105	-18.65100098	-1.190976143	-5.373287678	34.06249619	1.0
404	-91.03599548	-0.4390000105	-18.65100098	-1.026405454	-6.402348042	31.623209	1.0
405	-91.03599548	-0.4390000105	-18.65100098	-0.8458157182	-7.465915203	28.81888771	1.0
406	-91.03599548	-0.4390000105	-18.65100098	-0.6874345541	-8.412773132	26.17874336	1.0
[RightHandRing2]
403	-31.54000092	0	0	-1.487116337	-4.295804977	38.21773529	1.0
404	-31.54000092	0	0	-1.184590459	-3.874389887	33.92554474	1.0
405	-31.54000092	0	0	-0.8242741823	-3.279445648	28.16871262	1.0
406	-31.54000092	0	0	-0.5064066052	-2.604264736	22.00445747	1.0
[RightHandRing3]
403	-29.37700081	0	0	1.117154121	-2.508887291	21.15126038	1.0
404	-29.37700081	0	0	1.792961597	-2.069403648	17.31284904	1.0
405	-29.37700081	0	0	2.281942129	-1.579357624	13.12743378	1.0
406	-29.37700081	0	0	2.353542566	-1.110792398	9.19382	1.0
[RightHandRing4]
403	-26.47500038	0	0	0	0	0	1.0
404	-26.47500038	0	0	0	0	0	1.0
405	-26.47500038	0	0	0	0	0	1.0
406	-26.47500038	0	0	0	0	0	1.0
[RightHandMiddle1]
403	-95.32500458	0	0	-0.3801698983	2.418630362	19.54215813	1.0
404	-95.32500458	0	0	-0.2741979361	2.146332026	16.62630463	1.0
405	-95.32500458	0	0	-0.2078284025	1.7736094	14.47288704	1.0
406	-95.32500458	0	0	-0.1772729754	1.336001515	13.27591801	1.0
[RightHandMiddle2]
403	-36.98199844	0	0	-1.973161697	-4.848194599	44.31155396	1.0
404	-36.98199844	0	0	-1.567839503	-4.389276028	39.24039459	1.0
405	-36.98199844	0	0	-1.100284576	-3.747710466	32.66246033	1.0
406	-36.98199844	0	0	-0.6777458787	-2.993047237	25.51244926	1.0
[RightHandMiddle3]
403	-29.50900078	0	0	0.2933521867	-3.981608629	34.95203781	1.0
404	-29.50900078	0	0	1.431393266	-3.281078815	28.1506424	1.0
405	-29.50900078	0	0	2.236207962	-2.520771742	21.24194908	1.0
406	-29.50900078	0	0	2.424347878	-1.779635429	14.82076645	1.0
[RightHandMiddle4]
403	-28.3390007	0	0.0009999999311	0	0	0	1.0
404	-28.3390007	0	0.0009999999311	0	0	0	1.0
405	-28.3390007	0	0.0009999999311	0	0	0	1.0
406	-28.3390007	0	0.0009999999311	0	0	0	1.0
[RightHandIndex1]
403	-91.08300018	-5.167999744	22.60099792	0.1059782952	11.20461941	6.414159775	1.0
404	-91.08300018	-5.167999744	22.60099792	0.1352898329	11.42453671	3.854283333	1.0
405	-91.08300018	-5.167999744	22.60099792	0.1387586147	11.46498299	3.126751423	1.0
406	-91.08300018	-5.167999744	22.60099792	0.1284775138	11.26611614	4.178735733	1.0
[RightHandIndex2]
403	-36.76399994	0	0	-3.579149723	-6.068755627	61.08960724	1.0
404	-36.76399994	0	0	-2.937176228	-5.660430908	54.77928925	1.0
405	-36.76399994	0	0	-2.137688398	-5.002315521	46.17131805	1.0
406	-36.76399994	0	0	-1.343785882	-4.104845524	36.24035645	1.0
[RightHandIndex3]
403	-28.83100128	0	0	-2.040596485	-4.909403801	45.06791306	1.0
404	-28.83100128	0	0	-1.262251496	-3.987726688	35.05069351	1.0
405	-28.83100128	0	0	-0.6799661517	-3.001106501	25.57000542	1.0
406	-28.83100128	0	0	-0.3092450202	-2.050369978	17.15225983	1.0
[RightHandIndex4]
403	-23.92700005	0	0	0	0	0	1.0
404	-23.92700005	0	0	0	0	0	1.0
405	-23.92700005	0	0	0	0	0	1.0
406	-23.92700005	0	0	0	0	0	1.0
[RightHandThumb1]
403	-24.64799881	-15.72700024	26.82600021	1.161661386	-11.25525475	-12.52673435	1.0
404	-24.64799881	-15.72700024	26.82600021	2.398606539	-12.02798653	-12.70815659	1.0
405	-24.64799881	-15.72700024	26.82600021	3.469381332	-13.03919125	-13.25351238	1.0
406	-24.64799881	-15.72700024	26.82600021	4.335859299	-13.88155746	-14.04925823	1.0
[RightHandThumb2]
403	-32.29800034	-18.64699936	18.64699936	6.457183838	-14.33747959	-2.131276369	1.0
404	-32.29800034	-18.64699936	18.64699936	5.382705212	-10.65646839	-1.208075643	1.0
405	-32.29800034	-18.64699936	18.64699936	4.354310989	-6.960254669	-0.389787823	1.0
406	-32.29800034	-18.64699936	18.64699936	3.458061218	-3.758275032	0.2996847928	1.0
[RightHandThumb3]
403	-26.52600098	-15.31399918	15.31399918	0.5346744657	-3.564747095	-2.537026644	1.0
404	-26.52600098	-15.31399918	15.31399918	-0.425965488	-1.735417843	-2.326073647	1.0
405	-26.52600098	-15.31399918	15.31399918	-1.31071043	-0.06253319234	-2.226186752	1.0
406	-26.52600098	-15.31399918	15.31399918	-2.076168299	1.33213675	-2.259542942	1.0
[RightHandThumb4]
403	-19.54599953	-11.28499985	11.28499985	0	0	0	1.0
404	-19.54599953	-11.28499985	11.28499985	0	0	0	1.0
405	-19.54599953	-11.28499985	11.28499985	0	0	0	1.0
406	-19.54599953	-11.28499985	11.28499985	0	0	0	1.0
[LeftUpLeg]
403	82.07800293	-67.51699829	-15.99599934	-23.76790047	12.5965662	5.370491982	1.0
404	82.07800293	-67.51699829	-15.99599934	-19.05554962	10.34174728	2.490361691	1.0
405	82.07800293	-67.51699829	-15.99599934	-12.16878033	7.857686043	2.391394854	1.0
406	82.07800293	-67.51699829	-15.99599934	-3.708597183	5.487368584	3.610503912	1.0
[LeftLeg]
403	0	-443.7049866	2.845999956	46.98550797	12.4487381	-1.079245806	1.0
404	0	-443.7049866	2.845999956	47.83098602	11.56855965	-1.731663942	1.0
405	0	-443.7049866	2.845999956	42.20591354	11.02220345	-2.775156736	1.0
406	0	-443.7049866	2.845999956	29.83955002	10.78363228	-2.876190424	1.0
[LeftFoot]
403	0	-444.2789917	-29.8219986	5.101018906	9.330311775	0.7289986014	1.0
404	0	-444.2789917	-29.8219986	11.9649086	9.66947937	2.665996552	1.0
405	0	-444.2789917	-29.8219986	15.42110157	12.00018692	3.276538372	1.0
406	0	-444.2789917	-29.8219986	10.4672842	12.23145008	0.6589007974	1.0
[LeftToeBase]
403	0	-87.28699493	107.1060028	-2.428773642	3.368845e-06	4.546305945e-07	1.0
404	0	-87.28699493	107.1060028	-1.591957688	0.04398151487	0.1630851477	1.0
405	0	-87.28699493	107.1060028	-4.542937279	-0.1539521366	-0.5707934499	1.0
406	0	-87.28699493	107.1060028	-17.55461502	-0.9163748026	-3.397591352	1.0
[RightUpLeg]
403	-82.07800293	-67.51699829	-15.99599934	-6.841691971	3.724016428	-1.978221655	1.0
404	-82.07800293	-67.51699829	-15.99599934	-9.191570282	3.929412127	-3.223425627	1.0
405	-82.07800293	-67.51699829	-15.99599934	-10.00320435	5.713675022	-1.692710638	1.0
406	-82.07800293	-67.51699829	-15.99599934	-9.781210899	11.76167297	1.384345651	1.0
[RightLeg]
403	0	-443.7049866	2.861999989	35.00233841	-8.267020226	-5.749816418	1.0
404	0	-443.7049866	2.861999989	34.41955566	-6.391992092	-4.806185722	1.0
405	0	-443.7049866	2.861999989	28.05229568	-4.446095943	-3.110525846	1.0
406	0	-443.7049866	2.861999989	17.38735962	-8.032245636	-3.370459795	1.0
[RightFoot]
403	0	-444.2770081	-29.83799934	-1.949646592	-19.46984291	12.23514557	1.0
404	0	-444.2770081	-29.83799934	-0.8423572779	-8.89656353	9.795946121	1.0
405	0	-444.2770081	-29.83799934	-5.7632761	-0.773778975	13.73039722	1.0
406	0	-444.2770081	-29.83799934	-11.43482876	-0.6062570214	16.48997307	1.0
[RightToeBase]
403	0	-87.28699493	107.1060028	-4.248418331	-0.1727766842	-1.871906519	1.0
404	0	-87.28699493	107.1060028	3.419747591	0.03529821709	0.05518243834	1.0
405	0	-87.28699493	107.1060028	7.10405302	-0.0004764978657	0.02065642551	1.0
406	0	-87.28699493	107.1060028	6.423463345	-3.375777851e-06	4.85330429e-06	1.0
[EndOfFile]
